<svg xmlns="http://www.w3.org/2000/svg" viewBox="280 266 464 502">
<defs>
    <linearGradient id="brandGradient" x1="100%" y1="0%" x2="0%" y2="100%">
        <stop offset="0%" stop-color="#F59E0B"/>
        <stop offset="100%" stop-color="#EA580C"/>
    </linearGradient>
</defs>
<g transform="translate(0.000000,1024.000000) scale(0.100000,-0.100000)"
fill="url(#brandGradient)" stroke="none">
<path d="M3993 7476 c-241 -59 -411 -307 -374 -546 13 -84 34 -142 71 -200 35
-55 111 -129 166 -163 l42 -26 -39 -113 c-35 -101 -141 -562 -200 -870 l-23
-117 -65 -30 c-37 -16 -87 -39 -113 -50 -38 -16 -62 -40 -140 -138 -51 -65
-166 -210 -255 -322 -133 -167 -163 -210 -163 -236 0 -57 -15 -49 432 -242
l107 -47 3 -90 c2 -50 3 -269 2 -486 -2 -318 1 -400 12 -421 10 -19 35 -36 91
-59 85 -35 295 -123 1057 -441 275 -115 508 -209 518 -209 10 0 227 87 481
194 254 107 611 256 792 331 390 163 383 159 390 188 3 12 7 240 8 506 l2 484
259 113 c142 63 265 122 272 132 7 9 13 31 14 47 0 29 -40 82 -468 619 -42 53
-57 63 -147 102 -54 24 -105 50 -112 56 -6 7 -42 159 -78 338 -72 352 -129
586 -168 692 l-24 68 47 30 c59 38 138 121 172 180 139 244 41 559 -214 684
-226 112 -496 41 -628 -164 -18 -27 -33 -50 -35 -50 -1 0 -32 11 -68 25 -144
54 -253 69 -492 69 -239 0 -344 -15 -494 -69 -37 -14 -71 -25 -74 -25 -3 0
-19 23 -37 50 -109 170 -326 255 -527 206z m234 -287 c41 -20 107 -84 101 -98
-2 -5 -39 -37 -83 -73 -44 -35 -110 -103 -148 -149 -37 -46 -73 -85 -80 -87
-7 -1 -31 16 -54 39 -131 129 -76 332 105 390 37 11 109 1 159 -22z m1956 17
c187 -67 225 -294 68 -410 l-34 -25 -50 67 c-54 71 -170 188 -224 225 -18 12
-33 25 -33 29 0 15 64 80 94 95 67 35 118 40 179 19z m-1545 -786 c19 -12 40
-37 49 -58 13 -32 14 -42 2 -77 -42 -121 -219 -105 -236 22 -13 101 96 167
185 113z m1087 8 c41 -18 68 -72 62 -120 -16 -123 -186 -145 -234 -31 -42 101
69 198 172 151z m-421 -187 c35 -17 78 -47 95 -67 102 -116 210 -475 198 -661
-12 -193 -144 -339 -348 -383 -80 -18 -248 -8 -321 18 -112 40 -203 120 -251
222 -43 90 -49 205 -17 351 40 188 113 373 175 448 15 17 47 43 71 57 76 45
120 54 231 51 91 -3 109 -7 167 -36z m-1354 -1249 c729 -309 1045 -445 1053
-452 10 -9 -382 -496 -396 -492 -7 2 -327 141 -712 309 -385 168 -717 312
-737 320 -21 8 -38 18 -38 22 0 3 50 69 111 146 60 77 145 184 187 238 42 53
79 97 82 97 3 0 206 -85 450 -188z m2983 -51 c103 -128 187 -236 187 -240 0
-3 -114 -55 -253 -116 -426 -185 -1232 -537 -1239 -541 -3 -2 -46 47 -96 108
-49 62 -137 173 -197 246 -60 75 -104 137 -99 142 8 8 402 177 1159 498 182
77 335 139 340 138 6 -1 94 -107 198 -235z m-2798 -870 c309 -136 492 -211
513 -211 43 0 52 9 231 243 79 103 148 187 152 187 5 0 9 -318 9 -706 0 -668
-1 -706 -17 -701 -10 3 -121 49 -248 102 -486 205 -915 385 -1037 435 l-128
53 0 413 0 414 23 -9 c12 -5 238 -104 502 -220z m2495 -185 l0 -413 -372 -156
c-205 -86 -519 -217 -698 -292 -179 -76 -333 -139 -342 -142 -17 -5 -18 33
-18 701 0 388 3 706 8 706 4 -1 75 -87 157 -192 184 -236 186 -238 225 -238
25 0 599 245 980 418 25 11 48 21 53 21 4 1 7 -185 7 -413z"/>
<path d="M4965 5945 c-22 -8 -51 -26 -64 -41 -20 -24 -23 -36 -19 -85 5 -71
33 -110 112 -159 l56 -35 -2 -80 -3 -80 -46 -23 c-44 -21 -47 -22 -84 -6 -46
19 -79 8 -97 -30 -9 -20 -8 -30 6 -51 44 -68 168 -72 260 -10 l36 24 35 -24
c53 -35 100 -48 162 -43 74 6 108 33 108 84 0 52 -30 69 -88 48 -49 -17 -82
-12 -119 19 -25 20 -27 29 -29 96 l-2 73 69 47 c78 53 107 95 107 156 0 52
-21 88 -66 112 -44 24 -273 30 -332 8z"/>
</g>
</svg>
